<?xml version="1.0" encoding="UTF-8"?><svg class="svg-icon" viewBox="0 0 20 20" xmlns="http://www.w3.org/2000/svg"><style>.svg-icon{width: 1em; height: 1em;}.svg-icon path,.svg-icon polygon,.svg-icon rect{fill: #fff;}.svg-icon circle{stroke: #4691f6; stroke-width: 3;}</style><path d="m18.125 15.804-4.038-4.037c0.675-1.079 1.012-2.308 1.01-3.534-8e-3 -3.613-2.898-6.483-6.513-6.483-3.769 0-6.602 2.976-6.584 6.536 0.021 3.577 2.908 6.549 6.578 6.549 1.241 0 2.417-0.347 3.44-0.985l4.032 4.026c0.167 0.166 0.43 0.166 0.596 0l1.479-1.478c0.167-0.164 0.167-0.43 0-0.594m-9.547-1.814c-3.198 0-5.716-2.593-5.733-5.71-0.017-3.084 2.438-5.686 5.74-5.686 3.197 0 5.625 2.493 5.64 5.624 0.017 3.33-2.604 5.772-5.647 5.772m7.771 2.991-3.637-3.635c0.131-0.11 0.721-0.695 0.876-0.884l3.642 3.639-0.881 0.88z"/></svg>
